<svg width="314" height="314" viewBox="0 0 314 314" fill="none" xmlns="http://www.w3.org/2000/svg">
<g clip-path="url(#clip0_0_1)">
<circle cx="157" cy="157" r="157" fill="black"/>
<path d="M184.802 296.319C184.08 295.922 183.136 295.097 182.761 294.526C181.955 293.162 178.289 280.659 175.484 269.616C174.415 265.379 172.971 260.477 172.29 258.763C170.666 254.622 166.75 249.957 163.223 247.91C158.793 245.324 156.752 244.943 147.809 244.943C135.797 244.943 128.993 243.484 121.369 239.39C105.358 230.727 95.9015 213.702 97.4428 196.281C99.1092 177.209 113.023 161.105 128.868 159.931C131.631 159.74 134.02 159.978 139.088 160.946C147.475 162.549 154.974 162.993 163.403 162.263C179.331 160.946 199.466 155.98 207.354 151.458C214.13 147.523 216.546 141.589 214.672 133.497C213.686 129.261 213.825 127.325 215.269 125.659C216.296 124.533 216.893 124.247 218.421 124.247C220.046 124.247 220.504 124.485 221.448 125.707C222.976 127.801 223.837 131.498 224.128 136.94C224.517 144.572 223.142 149.11 218.893 154.362C216.171 157.725 212.505 160.438 208.548 162.041C207.062 162.628 205.604 163.358 205.354 163.643C205.146 163.881 204.423 164.135 203.826 164.135C203.229 164.135 202.077 164.532 201.271 165.056C200.466 165.547 198.077 166.325 195.953 166.753C193.87 167.198 190.801 167.927 189.135 168.308C187.51 168.705 183.386 169.578 179.983 170.26C176.581 170.942 172.749 171.767 171.471 172.053C169.985 172.449 164.958 172.64 157.626 172.592C147.712 172.592 145.323 172.449 140.171 171.466C130.381 169.609 123.396 170.593 118.203 174.528C109.51 181.144 104.622 194.964 106.955 206.197C109.163 216.907 117.175 226.776 127.271 231.251C133.27 233.932 135.144 234.218 146.989 234.662C159.418 235.106 161.598 235.535 167 238.549C175.47 243.262 179.858 249.878 183.219 262.92C184.066 266.236 186.066 273.773 187.69 279.612C189.315 285.498 190.634 290.893 190.634 291.67C190.634 293.622 189.607 295.653 188.288 296.335C186.927 297.065 186.496 297.065 184.844 296.24L184.802 296.319Z" fill="white"/>
<path d="M204.354 296.034C203.285 295.304 202.827 294.526 202.271 292.289C201.924 290.734 200.438 285.181 199.036 279.977C193.759 260.175 192.44 252.686 192.856 243.976C193.884 222.08 209.075 204.468 231.183 199.454C234.543 198.677 234.89 198.677 236.293 199.454C238.334 200.517 239.362 203.008 238.723 205.245C237.959 208.022 236.209 209.482 233.14 209.91C229.391 210.497 227.697 210.926 227.392 211.417C227.267 211.655 226.836 211.862 226.461 211.862C226.072 211.862 225.184 212.195 224.503 212.592C223.864 212.988 223.017 213.321 222.712 213.321C222.115 213.321 219.518 214.781 216.574 216.78C212.019 219.938 207.117 226.173 204.646 232.06C200.258 242.611 200.73 251.718 206.951 274.138C211.297 289.957 211.63 291.892 210.395 294.574C209.242 297.16 206.77 297.731 204.354 296.034Z" fill="white"/>
<path d="M224.239 273.122C218.24 272.392 216.102 271.758 214.741 270.155C213.63 268.934 213.505 268.505 213.713 266.696C213.88 265.284 214.311 264.316 215.116 263.491C216.269 262.428 216.519 262.365 220.393 262.666C222.601 262.809 226.35 263.111 228.697 263.253C236.612 263.84 244.361 261.984 251.262 257.954C253.817 256.447 255.609 254.892 258.289 251.782C262.885 246.53 265.107 241.96 266.843 233.932C268.12 227.95 268.967 226.3 271.064 225.761C272.689 225.364 274.341 226.253 275.369 228.046C276.091 229.362 276.174 230.14 276.008 232.615C275.022 244.436 269.106 255.828 259.664 264.094C255.109 268.14 246.93 271.774 239.57 273.138C236.376 273.725 229.475 273.725 224.239 273.138V273.122Z" fill="white"/>
<path d="M231.169 250.052C227.808 249.227 224.698 247.323 221.795 244.261C218.046 240.374 217.324 237.55 219.365 234.773C221.448 231.949 224.6 232.393 226.906 235.899C227.586 236.867 229.211 238.232 230.821 239.152C233.377 240.564 233.807 240.659 236.904 240.469C241.167 240.183 243.722 238.676 247.374 234.138C249.929 230.981 250.179 230.822 251.97 230.822C256.053 230.822 257.469 235.201 254.817 239.723C249.999 248.037 240.209 252.274 231.141 250.037L231.169 250.052Z" fill="white"/>
<path d="M176.54 233.853C174.873 231.949 174.665 229.87 175.429 224.603C176.79 215.654 180.192 207.086 185.344 199.74C194.203 187.047 206.937 178.669 226.475 172.687C234.904 170.101 239.764 168.213 244.236 165.738C247.638 163.834 248.874 162.818 252.151 159.074C255.22 155.615 256.372 153.917 257.692 150.855C259.219 147.301 259.358 146.666 259.483 142.097C259.65 135.877 259.775 135.195 261.149 133.735C263.149 131.593 266.773 132.672 267.926 135.734C268.69 137.924 268.69 145.032 267.884 148.872C266.523 155.488 263.538 161.089 258.261 166.928C253.192 172.481 247.527 176.019 238.848 179.097C236.807 179.827 234.932 180.557 234.668 180.795C234.46 180.986 232.405 181.62 230.197 182.207C224.531 183.715 218.865 185.761 215.671 187.459C214.186 188.237 212.478 189.062 211.88 189.252C210.895 189.585 207.576 191.489 205.965 192.663C195.231 200.406 188.468 209.498 185.566 220.16C185.094 221.905 184.497 225.079 184.247 227.221C183.608 232.234 183.094 233.694 181.608 234.519C179.692 235.693 177.901 235.439 176.54 233.884V233.853Z" fill="white"/>
<path d="M159.084 225.142C158.737 224.999 157.515 223.873 156.321 222.667C152.697 218.97 151.294 218.478 145.254 218.922C132.561 219.89 128.312 218.478 122.049 211.386C116.981 205.642 115.273 200.835 117.148 197.566C117.911 196.201 119.064 195.662 120.897 195.71C122.73 195.757 124.049 197.027 125.285 199.756C126.729 203.072 129.673 206.324 132.603 207.879C135.283 209.291 136.727 209.387 145.892 208.704C150.322 208.419 151.044 208.466 153.558 209.434C160.668 212.163 165.444 217.701 164.209 221.747C163.32 224.809 161.306 226.126 159.098 225.158L159.084 225.142Z" fill="white"/>
<path d="M239.986 223.635C238.959 222.461 238.709 221.731 238.709 220.128C238.709 217.209 240.236 215.606 243.819 214.829C249.138 213.655 256.845 211.227 259.997 209.672C274.564 202.516 283.631 188.951 287.117 169.197C288.047 163.754 288.186 146.571 287.283 140.351C285.659 128.578 282.854 118.598 278.091 107.508C272.05 93.4976 264.885 82.1055 255.137 71.0148C235.682 48.881 211.325 34.9661 181.428 28.8257C176.234 27.7627 174.873 27.6992 159.071 27.7627C145.268 27.7627 141.352 27.9531 137.352 28.6353C126.743 30.4917 113.509 34.379 107.552 37.4413C105.802 38.3139 103.289 39.5356 102.011 40.1227C100.734 40.7098 98.9009 41.5348 97.9705 41.9791C97.0401 42.4233 95.8043 43.1056 95.2071 43.534C94.61 43.9783 93.4991 44.6605 92.6937 45.0413C91.2912 45.676 89.6248 46.6438 84.5146 49.8171C83.2371 50.5946 81.2375 52.0543 80.1682 52.9746C79.0573 53.9424 78.0436 54.7199 77.8631 54.7199C77.3076 54.7199 72.4196 58.8134 69.6007 61.6218C68.0732 63.1767 66.6568 64.446 66.4485 64.446C65.8513 64.446 56.3531 74.8069 52.7426 79.4875C36.8149 99.8759 27.2333 124.342 25.9558 147.888C25.1087 164.183 30.1356 180.24 39.495 190.95C43.2027 195.186 46.3965 197.709 51.1179 200.247C59.9774 204.96 70.1561 205.214 79.3906 200.93C83.4315 199.026 84.4591 198.883 86.2504 199.962C88.8888 201.517 89.1527 204.579 86.8892 207.451C85.0562 209.736 80.807 211.782 74.6275 213.385C65.0043 215.812 52.1455 213.195 43.036 206.816C30.8993 198.455 22.3453 185.016 18.7627 168.768C14.6384 150.189 17.8323 126.532 27.4972 104.112C33.635 89.8642 41.203 77.9802 51.6456 66.112C75.0719 39.4563 105.219 23.0979 140.56 17.8937C148.017 16.8307 167.986 16.672 174.832 17.6557C210.214 22.7647 240.236 39.012 262.594 65.2394C269.315 73.1726 273.328 78.7576 278.355 87.4683C289.852 107.27 296.157 128.578 296.921 150.078C297.726 173.766 292.408 192.06 280.701 205.928C277.258 210.021 272.147 214.781 271.203 214.781C270.995 214.781 270.175 215.321 269.37 215.908C265.107 219.224 250.29 224.523 244.375 224.856C241.389 225.047 241.222 224.999 239.986 223.635Z" fill="white"/>
<path d="M159.807 196.297C157.46 195.614 155.044 194.06 154.016 192.6C152.225 189.966 153.294 186.031 156.016 185.063C157.46 184.571 157.932 184.667 160.362 185.841C163.639 187.396 166.75 187.348 169.638 185.65C173.554 183.366 176.956 184.968 176.956 189.109C176.956 191.743 175.637 193.488 172.318 195.234C170.402 196.249 169.208 196.503 165.68 196.598C163.334 196.693 160.695 196.551 159.807 196.313V196.297Z" fill="white"/>
<path d="M251.012 195.376C250.082 194.25 249.776 193.472 249.776 192.06C249.776 189.633 250.804 188.363 253.692 187.285C257.275 185.92 259.955 184.222 261.83 182.033C263.621 179.986 264.177 178.923 266.135 173.814C267.065 171.291 267.329 170.99 268.981 170.498C271.328 169.768 272.606 170.212 273.661 172.1C274.897 174.29 274.508 177.701 272.633 182.033C270.842 186.079 268.967 188.697 265.607 191.902C261.858 195.503 259.177 196.773 255.386 196.773C252.484 196.773 252.151 196.677 250.998 195.361L251.012 195.376Z" fill="white"/>
<path d="M63.4907 193.377C53.7008 191.87 44.4524 183.397 39.7727 171.529C32.4963 153.283 36.4539 126.96 50.1181 102.875C55.145 93.9736 63.4073 83.5652 69.8367 78.0595C75.2385 73.3948 76.2661 72.5062 77.1132 71.9827C77.5853 71.6971 79.3767 70.3801 81.1125 69.1108C91.0273 61.6694 107.51 55.1483 118.411 54.3708C122.119 54.1328 122.286 54.1328 123.605 55.3863C126.16 57.8615 125.771 61.955 122.799 63.5575C122.036 64.0018 119.008 64.7793 116.078 65.3029C104.455 67.4448 96.7902 70.4595 86.9586 76.8854C78.2658 82.5815 68.3509 92.3552 61.9215 101.701C50.6735 117.948 43.9109 140.034 45.3967 155.567C46.8409 170.45 54.2562 181.303 64.2961 183.302C70.9754 184.619 77.4048 180.192 79.0712 173.179C80.1404 168.657 78.3907 162.136 75.4052 159.502C72.253 156.773 69.3229 156.297 64.1155 157.646C61.7271 158.233 60.8384 158.281 59.6441 157.836C57.7695 157.106 56.4503 155.202 56.4503 153.267C56.4503 150.887 57.214 149.951 61.13 147.825C63.088 146.698 69.434 146.365 72.5029 147.142C82.1262 149.57 88.3889 158.582 88.3889 170.006C88.3473 180.272 82.8483 188.792 74.0443 192.187C72.5585 192.774 71.1976 193.361 71.0587 193.552C70.7116 193.948 66.7123 193.837 63.4768 193.361L63.4907 193.377Z" fill="white"/>
<path d="M101.637 155.615C100.567 154.6 100.317 154.012 100.317 152.41C100.317 149.395 101.47 147.253 105.636 142.541C108.58 139.13 110.274 137.67 112.871 136.115C120.703 131.545 127.896 130.181 135.103 131.879C142.254 133.529 147.364 137.178 147.878 140.923C148.086 142.525 147.92 142.969 146.601 144.477C145.795 145.397 144.684 146.174 144.17 146.174C143.615 146.174 141.574 145.254 139.532 144.128C136.047 142.176 135.658 142.033 131.27 141.89C125.646 141.652 123.272 142.224 117.523 145.254C116.537 145.746 115.606 146.174 115.44 146.174C114.676 146.174 111.399 149.729 109.857 152.108C109.01 153.521 107.774 155.171 107.177 155.758C105.65 157.313 103.303 157.217 101.637 155.615Z" fill="white"/>
<path d="M160.917 152.315C158.529 151.093 158.112 148.761 159.348 143.842C159.82 141.986 159.987 140.05 159.862 137.559C159.098 124.374 146.962 115.52 129.506 115.52C122.313 115.52 114.94 117.218 110.774 119.899C110.093 120.344 108.982 120.867 108.385 121.026C104.9 121.994 96.3736 130.165 91.9855 136.734C90.1525 139.463 89.2221 140.431 88.0695 140.78C85.9866 141.462 83.9453 140.447 83.0427 138.194C82.3622 136.591 82.3622 136.337 83.0427 134.354C83.9314 131.625 89.2221 124.326 92.9159 120.677C99.5536 114.156 106.927 109.729 115.565 107.095C120.286 105.683 121.008 105.635 128.854 105.588C137.547 105.54 139.158 105.778 145.892 108.063C157.307 111.903 165.736 121.01 168.249 132.053C169.277 136.575 168.972 143.921 167.569 147.825C166.083 152.013 163.653 153.663 160.931 152.299L160.917 152.315Z" fill="white"/>
<path d="M240.417 149.094C237.612 145.683 236.459 131.926 238.334 124.279C241.403 111.538 250.596 102.732 260.816 102.732C265.718 102.732 268.092 104.525 268.092 108.238C268.051 111.649 266.093 113.109 261.58 113.109C257.358 113.109 255.067 114.076 252.04 117.25C248.971 120.407 247.055 124.786 246.374 130.149C245.86 134.132 246.027 136.321 247.305 141.97C248.193 146.111 248.068 147.269 246.458 149.268C245.569 150.284 244.972 150.585 243.472 150.585C241.944 150.585 241.389 150.347 240.403 149.126L240.417 149.094Z" fill="white"/>
<path d="M181.608 140.875C179.484 138.4 179.817 136.639 183.691 129.737C192.12 114.648 198.591 104.921 205.701 96.7502C210.895 90.721 212.686 89.2613 214.769 89.2613C216.893 89.2613 218.685 91.4984 218.685 94.1323C218.685 96.1315 218.476 96.4171 212.214 103.811C204.757 112.522 201.396 117.393 193.773 130.514C190.787 135.671 187.774 140.383 187.093 141.065C185.302 142.763 183.219 142.716 181.594 140.875H181.608Z" fill="white"/>
<path d="M63.9628 135.036C62.8519 133.719 62.7686 133.338 62.9352 130.752C63.2824 125.929 67.1983 116.79 71.9613 109.729C74.0026 106.762 80.3071 99.511 83.0704 96.9883C86.2226 94.1164 92.0133 89.9753 95.2071 88.3251C96.9568 87.4525 98.9148 86.3736 99.5952 85.9928C103.22 83.8508 113.093 80.8838 119.647 79.9635C125.438 79.186 135.908 79.6303 141.796 80.979C155.891 84.1364 168.069 91.1494 177.651 101.558C182.33 106.619 183.011 109.237 180.289 111.871C177.776 114.299 176.456 113.664 170.194 107.397C163.972 101.114 156.946 96.6392 148.309 93.4342C140.643 90.5147 137.449 90.0229 127.576 90.1815C118.203 90.2767 112.121 91.2446 108.58 93.1962C107.649 93.688 106.497 94.1164 106.025 94.1164C104.747 94.1164 98.3177 97.5753 94.4434 100.336C84.0564 107.73 75.794 118.773 72.003 130.356C70.5172 134.877 69.198 136.432 66.8928 136.432C65.4903 136.432 64.8932 136.147 63.9489 135.02L63.9628 135.036Z" fill="white"/>
<path d="M228.114 104.144C226.919 103.367 225.989 101.621 225.947 100.003C225.947 99.3682 226.933 96.9406 228.114 94.5607C233.099 84.6917 234.196 77.9167 232.113 70.0945C231.183 66.588 231.307 64.7475 232.585 63.0339C233.474 61.7646 233.988 61.5266 235.529 61.5266C238.126 61.5266 239.362 62.8435 240.431 66.7308C243.458 77.8691 241.833 88.8646 235.487 100.05C233.016 104.43 230.669 105.747 228.128 104.144H228.114Z" fill="white"/>
<path d="M191.787 85.4057C189.787 83.3589 189.871 80.5823 192.078 75.6319C195.106 68.7776 201.23 63.2719 207.492 61.7646C211.242 60.8444 212.936 60.8444 216.685 61.8122C219.157 62.4945 220.046 62.9863 221.365 64.4461C223.073 66.4452 223.364 67.9526 222.351 70.1897C221.365 72.3317 219.879 73.014 217.588 72.3317C216.56 71.9985 214.186 71.7447 212.353 71.7447C209.367 71.7447 208.687 71.935 206.007 73.4424C202.604 75.3939 201.452 76.9013 199.369 82.1055C198.563 84.1523 197.536 85.9928 197.064 86.2942C195.397 87.3097 193.273 86.9289 191.787 85.4216V85.4057Z" fill="white"/>
<path d="M173.985 84.9773C172.027 83.7556 169.638 79.7255 168.277 75.1559C166.875 70.5864 166.833 66.112 168.027 61.2886C169.555 55.3545 169.777 53.2602 169.263 50.3407C168.833 47.9607 168.499 47.3261 165.639 44.121C162.875 41.0588 162.487 40.3766 162.487 38.8692C162.487 36.283 164.361 34.2997 166.875 34.2997C169.041 34.2997 170.957 35.6642 173.901 39.3611C178.623 45.2476 179.65 52.8794 176.97 62.5738C175.484 68.1271 175.943 71.824 178.845 76.6315C181.108 80.4236 180.886 83.581 178.248 85.1518C176.623 86.1197 175.776 86.0721 173.985 85.009V84.9773Z" fill="white"/>
<path d="M135.617 71.7922C134.089 69.9993 134.047 68.3809 135.45 63.3195C137.325 56.6556 136.811 51.4514 133.742 45.5649C131.867 42.106 131.826 40.2655 133.492 38.2187C136.686 34.2838 141.588 38.2187 144.268 46.9294C145.073 49.6109 145.198 51.023 145.198 56.4176C145.198 61.9233 145.031 63.2243 144.046 66.588C142.643 71.5542 141.282 73.2044 138.727 73.2044C137.241 73.2044 136.644 72.9188 135.617 71.7922Z" fill="white"/>
</g>
<defs>
<clipPath id="clip0_0_1">
<rect width="314" height="314" fill="white"/>
</clipPath>
</defs>
</svg>
