<?xml version="1.0" encoding="utf-8"?>
<!DOCTYPE svg PUBLIC "-//W3C//DTD SVG 1.0//EN" "http://www.w3.org/TR/2001/REC-SVG-20010904/DTD/svg10.dtd">
<svg version="1.0" xmlns="http://www.w3.org/2000/svg" width="314px" height="314px" viewBox="0 0 314 314" preserveAspectRatio="xMidYMid meet">
 <g fill="#0d1e35">
  <path d="M0 157 l0 -157 157 0 157 0 0 157 0 157 -157 0 -157 0 0 -157z m92.64 126.86 c0.58 -0.37 1.35 -1.29 1.75 -2.05 0.67 -1.35 0.67 -1.38 0.67 -17.26 l0 -15.88 1.44 0.09 1.44 0.09 3.47 5.06 c4.78 6.96 5.49 7.91 6.62 8.59 2.30 1.41 3.19 0.61 8.43 -7.21 l3.89 -5.83 1.47 -0.09 1.44 -0.09 0 15.73 c0 15.70 0 15.73 0.71 16.93 0.92 1.59 2.12 2.45 3.50 2.45 0.92 0 1.29 -0.21 2.15 -1.20 0.55 -0.64 1.13 -1.66 1.32 -2.27 0.43 -1.50 0.40 -44.86 0 -46.39 -0.34 -1.17 -2.42 -3.31 -3.22 -3.31 -0.98 0 -2.48 0.86 -3.56 2.05 -0.61 0.67 -3.89 5.40 -7.30 10.46 l-6.16 9.26 -1.20 0 -1.20 0 -6.04 -9.08 c-3.34 -4.97 -6.68 -9.72 -7.39 -10.52 -2.33 -2.58 -3.83 -2.76 -5.92 -0.67 -0.89 0.89 -1.29 1.59 -1.53 2.76 -0.46 2.12 -0.46 43.54 -0.03 45.17 0.40 1.44 1.69 2.97 2.91 3.50 1.20 0.52 1.13 0.55 2.33 -0.28z m85.49 -0.98 c0.52 -0.61 0.95 -1.29 0.95 -1.56 0 -0.61 -1.13 -2.82 -5.67 -11.01 -4.17 -7.51 -4.48 -8.49 -3.16 -9.87 0.37 -0.40 0.83 -0.71 1.01 -0.71 0.18 0 1.29 -0.89 2.39 -1.96 4.69 -4.48 5.73 -10.86 2.73 -16.83 -1.23 -2.48 -3.74 -5.18 -5.95 -6.41 -3.99 -2.21 -8.06 -2.79 -18.89 -2.64 -8.10 0.09 -8.13 0.12 -9.69 2.21 -0.64 0.83 -0.64 1.17 -0.74 23.06 -0.03 14.78 0.03 22.63 0.25 23.43 0.40 1.44 2.02 3.25 3.22 3.56 1.17 0.28 2.73 -0.58 3.62 -1.99 0.64 -1.07 0.67 -1.41 0.77 -10 0.06 -7.85 0.15 -8.92 0.58 -9.26 0.37 -0.28 2.09 -0.40 6.04 -0.40 l5.55 0 2.42 4.38 c9.63 17.20 9.32 16.71 11.53 17.33 1.29 0.34 1.75 0.12 3.04 -1.32z m47.99 -0.46 c0.86 -1.04 1.04 -2.36 0.46 -3.47 -0.49 -0.89 -7.60 -11.56 -11.07 -16.53 -3.89 -5.64 -4.20 -4.35 4.02 -16.25 3.68 -5.34 6.87 -10.15 7.08 -10.64 0.31 -0.77 0.31 -1.13 0 -1.90 -0.52 -1.23 -2.12 -2.42 -3.25 -2.42 -1.99 0 -3.77 2.02 -11.62 13.12 l-3.07 4.35 -1.29 0 -1.29 0 -4.84 -6.81 c-6.72 -9.41 -8.31 -11.07 -10.33 -10.55 -1.04 0.25 -2.48 1.53 -2.91 2.61 -0.52 1.23 -0.28 1.66 7.45 12.73 5.24 7.48 6.62 9.66 6.62 10.43 0 0.77 -1.38 2.94 -6.47 10.30 -7.54 10.92 -8.37 12.33 -8.13 13.34 0.28 1.04 1.56 2.45 2.64 2.91 2.24 0.92 3.47 -0.21 10.30 -9.81 l5.46 -7.67 1.53 0 1.56 0 4.91 7.11 c5.06 7.33 7.76 10.52 9.08 10.73 0.98 0.15 2.18 -0.43 3.16 -1.59z m-31.25 -77.89 c0.58 -1.10 0.46 -1.63 -2.33 -10.52 -3.25 -10.36 -4.17 -15.30 -3.83 -20.61 0.21 -3.68 0.74 -5.73 2.15 -8.59 1.72 -3.47 5.30 -7.42 8.46 -9.32 2.12 -1.26 3.99 -2.18 4.42 -2.18 0.21 0 0.83 -0.21 1.29 -0.46 0.49 -0.25 1.10 -0.46 1.35 -0.46 0.28 0 0.61 -0.12 0.77 -0.28 0.28 -0.28 2.27 -0.71 5.12 -1.10 1.13 -0.18 3.01 -1.87 3.01 -2.73 0 -0.74 -1.56 -2.02 -2.45 -2.02 -1.47 0 -6.59 1.47 -9.48 2.70 -9.29 4.02 -15.79 10.95 -18.25 19.47 -1.93 6.65 -1.32 11.28 3.43 26.89 1.01 3.28 2.09 6.78 2.33 7.76 0.40 1.38 0.74 1.90 1.47 2.36 1.13 0.71 1.84 0.43 2.55 -0.92z m-15.64 1.04 c0.25 -0.12 0.67 -0.58 0.92 -1.04 0.43 -0.80 0.31 -1.29 -1.66 -7.57 -1.17 -3.68 -2.61 -8.40 -3.22 -10.49 -2.42 -8.22 -5.58 -12.39 -11.68 -15.36 -3.89 -1.90 -5.46 -2.18 -14.41 -2.45 -8.52 -0.28 -9.87 -0.46 -14.20 -2.15 -5.86 -2.27 -11.22 -7.21 -13.52 -12.42 -2.33 -5.27 -2.09 -12.30 0.64 -17.85 2.12 -4.32 6.50 -8.25 10.24 -9.17 1.01 -0.25 3.53 -0.52 5.64 -0.61 3.19 -0.15 4.57 -0.09 8.13 0.52 3.59 0.58 5.49 0.71 11.65 0.71 4.60 0.03 8 -0.09 9.05 -0.34 0.92 -0.18 3.68 -0.71 6.13 -1.13 2.45 -0.43 5.43 -0.98 6.59 -1.23 1.20 -0.25 3.40 -0.71 4.91 -0.98 1.53 -0.28 3.25 -0.77 3.83 -1.07 0.58 -0.34 1.41 -0.58 1.84 -0.58 0.43 0 0.95 -0.15 1.10 -0.31 0.18 -0.18 1.23 -0.64 2.30 -1.01 2.85 -1.01 5.49 -2.73 7.45 -4.84 1.96 -2.09 2.97 -3.96 3.56 -6.38 0.74 -3.07 -0.18 -8.10 -1.81 -9.94 -0.80 -0.86 -0.95 -0.92 -1.66 -0.61 -0.43 0.21 -1.01 0.71 -1.29 1.13 -0.46 0.67 -0.46 0.89 -0.03 2.58 0.77 2.85 0.64 6.62 -0.25 8.49 -1.78 3.80 -6.50 6.16 -17.26 8.56 -14.93 3.34 -27.60 4.05 -38.73 2.18 -5.24 -0.89 -6.87 -0.86 -10.36 0.21 -3.56 1.07 -6.65 2.88 -9.44 5.55 -5.15 4.88 -8 10.70 -8.31 17.08 -0.12 2.85 -0.06 3.53 0.67 5.95 1.47 5.09 3.53 8.49 7.33 12.33 2.91 2.91 5.37 4.60 9.20 6.44 5.49 2.58 10.40 3.50 19.04 3.50 6.44 0 7.91 0.25 11.10 1.87 2.55 1.29 5.37 4.23 6.53 6.84 0.49 1.07 1.53 4.17 2.30 6.84 2.76 9.44 4.75 15.18 5.67 16.10 0.92 0.89 1.17 0.98 1.99 0.67z m36.64 -14.57 c3.04 -0.49 7.24 -1.75 10.03 -3.07 7.39 -3.40 13.65 -10.98 15.55 -18.89 0.83 -3.34 0.83 -3.65 0.09 -4.75 -1.63 -2.36 -2.94 -1.13 -4.17 3.83 -1.26 5.06 -2.85 7.94 -6.16 11.25 -1.93 1.96 -3.22 2.94 -5.06 3.89 -6.07 3.13 -12.76 4.08 -21.71 3.10 -3.13 -0.34 -3.34 -0.31 -4.14 0.28 -1.13 0.86 -1.23 1.99 -0.21 2.79 1.78 1.41 11.10 2.33 15.79 1.56z m1.04 -14.53 c2.79 -0.58 5.49 -1.90 7.42 -3.65 1.59 -1.41 3.50 -3.96 3.50 -4.63 0 -0.52 -1.53 -1.99 -2.09 -1.99 -0.25 0 -1.32 0.95 -2.39 2.09 -1.07 1.17 -2.67 2.51 -3.56 3.01 -1.44 0.77 -1.99 0.89 -4.91 0.98 -3.01 0.12 -3.40 0.06 -5 -0.67 -0.98 -0.43 -2.36 -1.44 -3.22 -2.33 -0.80 -0.83 -1.75 -1.53 -2.09 -1.53 -0.34 0 -0.98 0.43 -1.41 0.95 -0.74 0.86 -0.77 0.98 -0.34 1.78 0.61 1.20 3.43 3.71 5.30 4.72 1.47 0.80 4.54 1.69 6.04 1.72 0.34 0 1.56 -0.18 2.73 -0.43z m-41.58 -11.10 c0.18 -0.46 0.49 -1.96 0.71 -3.31 1.29 -8.95 6.26 -15.85 15.64 -21.77 1.17 -0.74 3.56 -1.93 4.26 -2.15 0.43 -0.12 1.66 -0.64 2.73 -1.13 2.30 -1.07 6.38 -2.36 10.46 -3.31 1.59 -0.37 3.07 -0.77 3.22 -0.89 0.18 -0.15 1.53 -0.61 3.01 -1.07 3.56 -1.10 7.60 -2.85 9.87 -4.32 2.33 -1.47 5.95 -4.97 7.67 -7.36 4.08 -5.70 5.15 -13.71 2.05 -15.30 -0.86 -0.46 -0.95 -0.43 -1.69 0.25 -0.98 0.92 -1.07 1.35 -1.20 5.27 -0.09 2.88 -0.18 3.28 -1.29 5.52 -0.95 1.93 -1.78 3.01 -3.99 5.18 -2.36 2.36 -3.25 3.01 -5.70 4.20 -3.22 1.56 -6.72 2.76 -12.79 4.38 -14.07 3.77 -23.24 9.05 -29.62 17.05 -3.62 4.48 -6.19 10.06 -7.08 15.27 -0.46 2.67 -0.25 3.68 0.95 4.63 0.71 0.55 0.86 0.55 1.63 0.15 0.46 -0.25 0.98 -0.83 1.17 -1.29z m-14.38 -5.49 c0.83 -1.07 0.83 -1.32 -0.28 -2.85 -1.17 -1.59 -3.77 -3.28 -6.59 -4.26 -1.93 -0.67 -2.42 -0.74 -4.75 -0.49 -1.44 0.12 -3.99 0.25 -5.67 0.25 -2.70 0.03 -3.28 -0.06 -4.81 -0.80 -2.12 -0.98 -4.23 -3.04 -5.27 -5.12 -1.38 -2.67 -3.07 -3.13 -4.17 -1.10 -0.40 0.77 -0.37 0.95 0.46 2.55 1.07 2.15 4.94 6.04 7.08 7.18 2.91 1.56 4.57 1.81 10.86 1.59 6.59 -0.25 7.27 -0.09 9.97 2.42 0.86 0.77 1.78 1.41 2.05 1.44 0.28 0 0.80 -0.37 1.13 -0.80z m64.79 -0.52 c4.42 -1.17 9.81 -3.19 11.59 -4.42 0.58 -0.37 1.17 -0.71 1.32 -0.71 0.67 0 4.35 -3.01 6.84 -5.58 6.81 -7.05 10.33 -15.21 11.50 -26.68 0.86 -8.34 -0.77 -19.35 -4.20 -28.70 -2.88 -7.85 -9.02 -18.40 -14.44 -24.96 -16.96 -20.45 -40.48 -32.87 -69.09 -36.49 -4.84 -0.61 -17.51 -0.52 -22.84 0.18 -21.53 2.73 -40.48 10.61 -56.36 23.37 -4.26 3.40 -11.32 10.43 -14.63 14.53 -7.60 9.51 -13.46 21 -16.07 31.61 -2.79 11.38 -2.45 20.33 1.10 29.19 4.60 11.44 14.60 20.12 25.85 22.45 4.26 0.86 7.60 0.92 10.89 0.15 4.42 -1.01 7.45 -2.30 8.74 -3.71 1.23 -1.35 1.13 -2.05 -0.37 -2.82 -0.71 -0.40 -1.01 -0.34 -3.28 0.58 -3.62 1.47 -7.48 2.09 -11.99 1.87 -4.42 -0.21 -6.78 -0.77 -10.12 -2.33 -3.40 -1.59 -5.70 -3.19 -8.37 -5.86 -6.90 -6.90 -10.27 -16.53 -9.78 -27.90 0.67 -15.30 7.54 -30.97 19.32 -44.19 2.61 -2.94 9.44 -9.48 9.87 -9.48 0.15 0 1.17 -0.80 2.27 -1.78 2.02 -1.78 5.55 -4.35 5.95 -4.35 0.12 0 0.86 -0.49 1.66 -1.10 0.77 -0.58 2.21 -1.50 3.13 -1.99 3.68 -1.99 4.88 -2.61 5.89 -3.01 0.58 -0.25 1.38 -0.67 1.81 -0.95 0.43 -0.28 1.32 -0.71 1.99 -0.98 0.67 -0.28 1.99 -0.80 2.91 -1.17 0.92 -0.37 2.73 -1.13 3.99 -1.69 4.29 -1.93 13.80 -4.38 21.46 -5.55 2.94 -0.46 5.70 -0.55 16.56 -0.55 12.33 -0.03 13.25 0 17.02 0.67 8.28 1.47 14.32 3.16 21.31 5.95 12.42 4.94 22.72 11.62 31.77 20.64 7.02 6.99 12.17 14.17 16.53 23 3.43 6.99 5.46 13.28 6.62 20.70 0.64 4.02 0.55 16.59 -0.12 20.02 -2.51 12.48 -9.05 21 -19.53 25.51 -2.27 0.98 -7.82 2.51 -11.65 3.25 -1.44 0.28 -2.24 0.61 -2.82 1.23 -1.07 1.07 -1.07 1.35 0.06 2.48 1.17 1.13 1.75 1.10 7.73 -0.46z m-57.89 -17.66 c2.30 -1.17 3.16 -2.21 2.67 -3.28 -0.58 -1.29 -1.59 -1.50 -3.13 -0.71 -2.02 1.04 -6.10 1.20 -8.13 0.31 -1.78 -0.80 -2.70 -0.64 -3.34 0.55 -0.40 0.83 -0.40 0.95 0.18 1.69 2.12 2.67 7.88 3.37 11.74 1.44z m63.32 0.43 c1.87 -0.89 4.78 -3.22 6.35 -5.12 1.13 -1.35 2.97 -4.72 3.28 -6.07 0.28 -1.13 -0.77 -2.76 -1.78 -2.76 -1.04 0 -1.81 0.86 -2.58 2.91 -1.50 4.02 -3.83 6.10 -8.56 7.67 -1.53 0.49 -2.82 1.44 -2.82 2.09 0 0.15 0.40 0.67 0.89 1.17 1.17 1.17 2.88 1.20 5.21 0.12z m-136.64 -1.26 c0.09 -0.12 1.07 -0.49 2.15 -0.86 4.05 -1.35 7.02 -3.86 8.80 -7.45 0.86 -1.69 1.53 -4.20 1.53 -5.61 0 -1.41 -0.77 -4.38 -1.56 -6.04 -2.30 -4.78 -8.06 -8.10 -13.28 -7.70 -2.39 0.21 -5.40 1.56 -6.01 2.73 -0.28 0.49 -0.18 0.77 0.61 1.53 0.83 0.83 1.07 0.92 2.09 0.77 0.61 -0.09 2.58 -0.28 4.35 -0.37 3.13 -0.18 3.28 -0.15 4.91 0.71 1.87 0.98 3.43 2.94 4.02 5.09 0.18 0.71 0.28 2.48 0.21 3.92 -0.09 2.21 -0.28 2.88 -1.04 4.29 -1.63 2.88 -4.94 4.57 -9.02 4.57 -4.72 0 -8.59 -1.90 -11.65 -5.76 -4.48 -5.64 -5.89 -14.11 -3.96 -23.83 2.48 -12.42 9.97 -24.65 20.27 -33.09 9.87 -8.10 18.06 -11.84 29.99 -13.74 4.26 -0.67 5.83 -1.32 6.29 -2.55 0.25 -0.74 0.18 -0.92 -0.74 -1.75 -1.01 -0.89 -1.13 -0.92 -3.01 -0.74 -7.85 0.80 -19.20 4.88 -25.88 9.26 -1.26 0.80 -2.55 1.63 -2.88 1.81 -0.61 0.34 -1.35 0.89 -5.24 3.83 -2.67 1.99 -7.48 6.75 -10.06 9.94 -7.51 9.26 -12.73 21.04 -13.98 31.61 -1.47 12.39 5.18 24.50 15.58 28.27 2.55 0.92 7.02 1.59 7.51 1.13z m26 -23.83 c0.43 -0.37 1.32 -1.41 1.93 -2.30 1.10 -1.50 3.47 -3.74 4.02 -3.74 0.12 0 0.80 -0.25 1.50 -0.58 4.42 -2.02 5.73 -2.27 10.92 -2.15 4.08 0.12 4.17 0.15 6.44 1.29 1.26 0.61 2.42 1.13 2.58 1.13 0.52 0 1.72 -1.32 1.72 -1.87 0 -0.83 -2.61 -2.91 -4.72 -3.77 -1.07 -0.40 -3.10 -0.98 -4.48 -1.29 -2.18 -0.43 -2.94 -0.46 -5.09 -0.15 -6.62 0.92 -12.82 4.48 -16.50 9.48 -1.56 2.15 -1.66 2.85 -0.49 3.86 1.17 0.98 1.17 0.98 2.18 0.09z m42.07 -2.67 c1.04 -0.83 2.09 -3.65 2.27 -6.29 0.34 -4.51 -1.63 -8.95 -5.70 -13.03 -3.01 -3.01 -6.32 -4.91 -10.76 -6.22 -4.69 -1.41 -6.07 -1.59 -11.35 -1.56 -4.60 0.03 -5.37 0.12 -8.65 0.98 -8.19 2.15 -15.36 6.62 -20.45 12.79 -3.28 3.96 -3.65 5.09 -2.02 6.16 1.10 0.71 1.75 0.34 3.65 -2.15 3.16 -4.14 9.29 -9.29 11.81 -9.90 0.43 -0.09 1.23 -0.43 1.72 -0.71 3.22 -1.78 8.28 -2.76 14.41 -2.76 11.07 0 18.46 3.25 21.53 9.41 1.07 2.15 1.17 2.58 1.26 5.46 0.09 2.30 0 3.62 -0.37 4.88 -0.55 1.84 -0.37 2.61 0.67 3.22 0.77 0.46 1.10 0.40 1.99 -0.28z m58.23 -1.44 c0.98 -0.92 1.04 -1.47 0.40 -3.56 -1.17 -3.86 -0.83 -9.29 0.83 -12.88 0.71 -1.53 1.44 -2.55 2.79 -3.74 2.18 -1.96 3.83 -2.61 6.84 -2.61 2.48 0 3.56 -0.37 4.26 -1.44 0.61 -0.89 0.21 -1.72 -1.17 -2.55 -1.99 -1.23 -6.13 -0.52 -9.90 1.69 -5.09 2.97 -8.71 9.63 -8.71 16.07 0 3.53 1.01 7.70 2.15 8.92 1.04 1.13 1.41 1.13 2.51 0.09z m-42.19 -5.67 c0.37 -0.37 2.45 -3.40 4.66 -6.68 5.34 -8.06 7.64 -10.98 13 -16.44 2.48 -2.55 4.54 -4.81 4.54 -5.03 0 -0.18 -0.40 -0.77 -0.92 -1.26 -0.89 -0.92 -0.92 -0.92 -1.90 -0.40 -1.41 0.74 -7.60 7.05 -10.52 10.70 -3.86 4.88 -12.42 17.48 -12.42 18.31 0 0.15 0.40 0.71 0.92 1.20 0.98 1.01 1.44 0.95 2.64 -0.40z m-85.06 -3.22 c0.46 -0.49 1.17 -1.81 1.63 -3.01 2.73 -7.30 8.68 -14.26 16.16 -18.92 2.79 -1.75 7.42 -3.92 8.34 -3.92 0.34 0 1.17 -0.28 1.84 -0.58 2.64 -1.29 6.90 -1.84 14.60 -1.93 8.10 -0.09 10.06 0.15 15.85 2.09 6.47 2.12 11.84 5.18 16.71 9.60 3.28 2.94 3.37 3.01 4.60 1.90 0.95 -0.83 0.98 -0.92 0.55 -1.72 -0.55 -1.07 -4.20 -4.48 -6.87 -6.47 -9.87 -7.39 -24.10 -11.35 -35.63 -9.97 -4.72 0.58 -11.84 2.45 -14.44 3.80 -0.49 0.25 -2.02 0.98 -3.43 1.63 -6.62 3.07 -14.11 9.60 -18.31 15.98 -1.93 2.94 -3.86 6.87 -4.45 9.08 -0.40 1.38 -0.37 1.44 0.49 2.36 1.07 1.13 1.35 1.13 2.36 0.09z m118.12 -20.42 c1.38 -1.47 3.74 -5.83 4.69 -8.65 0.74 -2.15 0.86 -2.91 0.83 -6.29 0 -3.28 -0.09 -4.14 -0.74 -5.95 -1.20 -3.34 -2.55 -4.02 -4.05 -1.99 -0.52 0.71 -0.52 0.86 -0.09 2.27 0.64 2.02 0.92 6.93 0.52 9.05 -0.46 2.42 -1.38 4.69 -3.13 7.76 -0.83 1.47 -1.53 2.88 -1.53 3.13 0 0.67 1.13 1.69 1.87 1.69 0.37 0 1.10 -0.46 1.63 -1.01z m-26.43 -10.36 c0.34 -0.18 1.07 -1.35 1.66 -2.64 1.50 -3.28 2.33 -4.20 4.84 -5.49 l2.18 -1.07 4.38 0.09 c4.05 0.06 4.45 0.03 4.84 -0.52 0.67 -0.92 0.52 -1.53 -0.61 -2.55 -0.77 -0.67 -1.72 -1.07 -3.31 -1.44 -2.05 -0.46 -2.48 -0.46 -4.48 -0.03 -4.63 0.95 -9.05 4.38 -11.22 8.68 -1.35 2.73 -1.38 3.47 -0.15 4.51 1.07 0.92 1.04 0.92 1.87 0.46z m-12.79 -1.35 c0.43 -0.40 0.77 -0.86 0.77 -1.01 0 -0.18 -0.49 -1.01 -1.10 -1.90 -0.58 -0.86 -1.29 -2.15 -1.53 -2.82 -0.67 -1.96 -0.55 -5.37 0.37 -8.43 1.63 -5.67 0.61 -9.54 -3.53 -13.37 -2.18 -1.99 -2.85 -2.30 -3.86 -1.63 -1.69 1.10 -1.59 1.50 0.89 3.92 2.09 2.05 2.30 2.39 2.64 4.08 0.46 2.24 0.25 4.69 -0.77 8.10 -0.43 1.44 -0.77 3.19 -0.77 3.89 0 2.58 2.45 7.97 4.23 9.29 1.10 0.83 1.78 0.80 2.67 -0.12z m-27.02 -7.79 c2.30 -2.39 3.19 -9.38 1.75 -13.77 -0.86 -2.61 -2.55 -5.15 -3.96 -5.98 l-0.98 -0.58 -0.92 0.98 -0.92 1.01 0.83 1.41 c1.93 3.28 2.05 3.68 2.18 7.39 0.09 3.13 0.03 3.80 -0.67 5.95 -0.83 2.61 -0.77 3.13 0.49 3.99 0.95 0.67 1.23 0.61 2.21 -0.40z"/>
  <path d="M150.10 254.88 l-0.92 -0.21 -0.09 -7.18 c-0.06 -5.03 0.03 -7.30 0.28 -7.57 0.28 -0.34 1.84 -0.43 7.67 -0.43 4.38 0 7.64 0.12 8.16 0.34 1.23 0.46 2.82 2.05 3.50 3.50 0.40 0.89 0.58 1.93 0.58 3.83 0 3.07 -0.61 4.72 -2.21 5.92 -2.05 1.56 -2.82 1.72 -9.66 1.87 -3.50 0.06 -6.78 0.03 -7.30 -0.06z"/>
 </g>
 <g fill="#fefefe">
  <path d="M89.39 285.05 c-1.26 -0.55 -2.51 -2.09 -2.91 -3.56 -0.21 -0.83 -0.31 -8.74 -0.25 -24.13 0.09 -21.89 0.12 -23 0.67 -24.13 0.89 -1.78 2.70 -2.94 4.54 -2.94 3.07 0 3.68 0.67 11.74 12.73 3.34 4.97 6.16 9.05 6.32 9.05 0.15 0 3.07 -4.17 6.47 -9.26 3.40 -5.12 6.72 -9.87 7.39 -10.58 1.47 -1.59 3.50 -2.36 5.09 -1.93 1.38 0.37 3.01 1.99 3.40 3.40 0.43 1.41 0.40 46.67 0 48.14 -0.18 0.61 -0.77 1.63 -1.35 2.30 -1.01 1.17 -1.07 1.20 -3.04 1.20 -2.33 0 -3.31 -0.55 -4.42 -2.48 -0.71 -1.20 -0.71 -1.23 -0.71 -16.93 0 -14.84 -0.03 -15.73 -0.52 -15.64 -0.31 0.06 -2.27 2.67 -4.45 5.92 -2.15 3.22 -4.38 6.29 -4.97 6.84 -0.95 0.86 -1.32 0.98 -2.70 0.98 -2.85 0 -3.07 -0.21 -9.23 -9.20 -1.90 -2.79 -3.71 -5.09 -3.99 -5.15 -0.49 -0.09 -0.52 1.04 -0.52 15.79 0 15.88 0 15.91 -0.67 17.26 -1.23 2.42 -3.59 3.34 -5.92 2.33z"/>
  <path d="M174.17 285.11 c-2.24 -0.61 -1.90 -0.12 -11.53 -17.33 l-2.42 -4.38 -4.63 0 c-3.22 0 -4.75 0.12 -5.12 0.40 -0.43 0.34 -0.52 1.41 -0.58 9.26 -0.09 8.52 -0.12 8.92 -0.77 9.97 -0.89 1.47 -2.18 2.15 -3.99 2.15 -1.81 0 -3.13 -0.74 -4.11 -2.33 l-0.74 -1.20 0 -23.83 c0 -23.58 0 -23.83 0.64 -24.65 0.34 -0.46 1.01 -1.13 1.47 -1.47 0.80 -0.61 1.32 -0.64 9.14 -0.74 11.87 -0.15 15.73 0.37 19.81 2.64 2.02 1.13 4.66 3.86 5.80 6.07 2.48 4.66 2.55 10.92 0.21 15.55 -0.80 1.56 -4.48 5.43 -5.18 5.43 -0.37 0 -1.69 1.26 -1.69 1.63 0 0.09 1.72 3.31 3.83 7.11 5.43 9.78 5.67 10.33 5.67 11.99 0 1.29 -0.15 1.56 -1.35 2.76 -1.44 1.44 -2.24 1.63 -4.48 0.98z m-10.21 -31.68 c2.91 -1.23 4.38 -3.31 4.38 -6.29 0 -2.76 -1.78 -5.55 -4.08 -6.41 -0.52 -0.21 -3.50 -0.34 -7.24 -0.34 -5.06 0 -6.47 0.09 -6.75 0.43 -0.25 0.28 -0.34 2.30 -0.28 6.65 l0.09 6.26 0.92 0.15 c0.52 0.09 3.37 0.15 6.38 0.09 4.02 -0.06 5.73 -0.21 6.56 -0.55z"/>
  <path d="M222.04 284.96 c-1.35 -0.25 -4.05 -3.47 -9.08 -10.76 -3.71 -5.40 -5.06 -7.11 -5.55 -7.11 -0.46 0 -1.90 1.78 -5.76 7.24 -7.14 10.03 -7.67 10.55 -10.52 10.55 -2.73 0 -4.69 -1.93 -4.69 -4.60 0 -1.75 0.55 -2.64 8.46 -14.11 3.22 -4.63 5.92 -8.59 6.04 -8.77 0.12 -0.21 -2.70 -4.54 -6.41 -9.81 -3.65 -5.21 -6.90 -10 -7.21 -10.61 -1.87 -3.65 1.41 -7.70 5.37 -6.65 1.87 0.49 3.92 2.82 9.48 10.64 2.67 3.74 5 6.81 5.21 6.81 0.21 0 1.75 -1.96 3.43 -4.35 8.49 -12.05 9.69 -13.28 12.57 -13.28 3.50 0.06 5.55 3.53 3.96 6.68 -0.28 0.55 -3.40 5.18 -6.96 10.30 -3.53 5.12 -6.50 9.57 -6.56 9.84 -0.09 0.34 0.92 2.05 2.58 4.48 5.30 7.64 10.89 16.10 11.35 17.20 0.89 2.18 -0.18 4.94 -2.39 6.07 -0.83 0.46 -1.84 0.52 -3.31 0.25z"/>
  <path d="M177.36 206.55 c-0.52 -0.25 -1.20 -0.77 -1.47 -1.13 -0.58 -0.86 -3.22 -8.74 -5.24 -15.70 -0.77 -2.67 -1.81 -5.76 -2.30 -6.84 -1.17 -2.61 -3.99 -5.55 -6.53 -6.84 -3.19 -1.63 -4.66 -1.87 -11.10 -1.87 -8.65 0 -13.55 -0.92 -19.04 -3.50 -11.53 -5.46 -18.34 -16.19 -17.23 -27.17 1.20 -12.02 11.22 -22.17 22.63 -22.91 1.99 -0.12 3.71 0.03 7.36 0.64 6.04 1.01 11.44 1.29 17.51 0.83 11.47 -0.83 25.97 -3.96 31.65 -6.81 4.88 -2.48 6.62 -6.22 5.27 -11.32 -0.71 -2.67 -0.61 -3.89 0.43 -4.94 0.74 -0.71 1.17 -0.89 2.27 -0.89 1.17 0 1.50 0.15 2.18 0.92 1.10 1.32 1.72 3.65 1.93 7.08 0.28 4.81 -0.71 7.67 -3.77 10.98 -1.96 2.12 -4.60 3.83 -7.45 4.84 -1.07 0.37 -2.12 0.83 -2.30 1.01 -0.15 0.15 -0.67 0.31 -1.10 0.31 -0.43 0 -1.26 0.25 -1.84 0.58 -0.58 0.31 -2.30 0.80 -3.83 1.07 -1.50 0.28 -3.71 0.74 -4.91 0.98 -1.17 0.25 -4.14 0.80 -6.59 1.23 -2.45 0.43 -5.21 0.95 -6.13 1.13 -1.07 0.25 -4.69 0.37 -9.97 0.34 -7.14 0 -8.86 -0.09 -12.57 -0.71 -7.05 -1.17 -12.08 -0.55 -15.82 1.93 -6.26 4.17 -9.78 12.88 -8.10 19.96 1.59 6.75 7.36 12.97 14.63 15.79 4.32 1.69 5.67 1.87 14.20 2.15 8.95 0.28 10.52 0.55 14.41 2.45 6.10 2.97 9.26 7.14 11.68 15.36 0.61 2.09 2.05 6.84 3.22 10.52 1.17 3.71 2.12 7.11 2.12 7.60 0 1.23 -0.74 2.51 -1.69 2.94 -0.98 0.46 -1.29 0.46 -2.48 -0.06z"/>
  <path d="M191.44 206.37 c-0.77 -0.46 -1.10 -0.95 -1.50 -2.36 -0.25 -0.98 -1.32 -4.48 -2.33 -7.76 -3.80 -12.48 -4.75 -17.20 -4.45 -22.69 0.74 -13.80 11.68 -24.90 27.60 -28.06 2.42 -0.49 2.67 -0.49 3.68 0 1.47 0.67 2.21 2.24 1.75 3.65 -0.55 1.75 -1.81 2.67 -4.02 2.94 -2.70 0.37 -3.92 0.64 -4.14 0.95 -0.09 0.15 -0.40 0.28 -0.67 0.28 -0.28 0 -0.92 0.21 -1.41 0.46 -0.46 0.25 -1.07 0.46 -1.29 0.46 -0.43 0 -2.30 0.92 -4.42 2.18 -3.28 1.99 -6.81 5.92 -8.59 9.63 -3.16 6.65 -2.82 12.39 1.66 26.52 3.13 9.97 3.37 11.19 2.48 12.88 -0.83 1.63 -2.61 1.99 -4.35 0.92z"/>
  <path d="M205.76 191.93 c-4.32 -0.46 -5.86 -0.86 -6.84 -1.87 -0.80 -0.77 -0.89 -1.04 -0.74 -2.18 0.12 -0.89 0.43 -1.50 1.01 -2.02 0.83 -0.67 1.01 -0.71 3.80 -0.52 1.59 0.09 4.29 0.28 5.98 0.37 5.70 0.37 11.28 -0.80 16.25 -3.34 1.84 -0.95 3.13 -1.93 5.06 -3.89 3.31 -3.31 4.91 -6.19 6.16 -11.25 0.92 -3.77 1.53 -4.81 3.04 -5.15 1.17 -0.25 2.36 0.31 3.10 1.44 0.52 0.83 0.58 1.32 0.46 2.88 -0.71 7.45 -4.97 14.63 -11.77 19.84 -3.28 2.55 -9.17 4.84 -14.47 5.70 -2.30 0.37 -7.27 0.37 -11.04 0z"/>
  <path d="M210.75 177.39 c-2.42 -0.52 -4.66 -1.72 -6.75 -3.65 -2.70 -2.45 -3.22 -4.23 -1.75 -5.98 1.50 -1.78 3.77 -1.50 5.43 0.71 0.49 0.61 1.66 1.47 2.82 2.05 1.84 0.89 2.15 0.95 4.38 0.83 3.07 -0.18 4.91 -1.13 7.54 -3.99 1.84 -1.99 2.02 -2.09 3.31 -2.09 2.94 0 3.96 2.76 2.05 5.61 -3.47 5.24 -10.52 7.91 -17.05 6.50z"/>
  <path d="M171.41 167.18 c-1.20 -1.20 -1.35 -2.51 -0.80 -5.83 0.98 -5.64 3.43 -11.04 7.14 -15.67 6.38 -8 15.55 -13.28 29.62 -17.05 6.07 -1.63 9.57 -2.82 12.79 -4.38 2.45 -1.20 3.34 -1.84 5.70 -4.20 2.21 -2.18 3.04 -3.25 3.99 -5.18 1.10 -2.24 1.20 -2.64 1.29 -5.52 0.12 -3.92 0.21 -4.35 1.20 -5.27 1.44 -1.35 4.05 -0.67 4.88 1.26 0.55 1.38 0.55 5.86 -0.03 8.28 -0.98 4.17 -3.13 7.70 -6.93 11.38 -3.65 3.50 -7.73 5.73 -13.98 7.67 -1.47 0.46 -2.82 0.92 -3.01 1.07 -0.15 0.12 -1.63 0.52 -3.22 0.89 -4.08 0.95 -8.16 2.24 -10.46 3.31 -1.07 0.49 -2.30 1.01 -2.73 1.13 -0.71 0.21 -3.10 1.41 -4.26 2.15 -7.73 4.88 -12.60 10.61 -14.69 17.33 -0.34 1.10 -0.77 3.10 -0.95 4.45 -0.46 3.16 -0.83 4.08 -1.90 4.60 -1.38 0.74 -2.67 0.58 -3.65 -0.40z"/>
  <path d="M158.84 161.69 c-0.25 -0.09 -1.13 -0.80 -1.99 -1.56 -2.61 -2.33 -3.62 -2.64 -7.97 -2.36 -9.14 0.61 -12.20 -0.28 -16.71 -4.75 -3.65 -3.62 -4.88 -6.65 -3.53 -8.71 0.55 -0.86 1.38 -1.20 2.70 -1.17 1.32 0.03 2.27 0.83 3.16 2.55 1.04 2.09 3.16 4.14 5.27 5.12 1.93 0.89 2.97 0.95 9.57 0.52 3.19 -0.18 3.71 -0.15 5.52 0.46 5.12 1.72 8.56 5.21 7.67 7.76 -0.64 1.93 -2.09 2.76 -3.68 2.15z"/>
  <path d="M217.10 160.74 c-0.74 -0.74 -0.92 -1.20 -0.92 -2.21 0 -1.84 1.10 -2.85 3.68 -3.34 3.83 -0.74 9.38 -2.27 11.65 -3.25 10.49 -4.51 17.02 -13.06 19.53 -25.51 0.67 -3.43 0.77 -14.26 0.12 -18.18 -1.17 -7.42 -3.19 -13.71 -6.62 -20.70 -4.35 -8.83 -9.51 -16.01 -16.53 -23 -14.01 -13.95 -31.55 -22.72 -53.08 -26.59 -3.74 -0.67 -4.72 -0.71 -16.10 -0.67 -9.94 0 -12.76 0.12 -15.64 0.55 -7.64 1.17 -17.17 3.62 -21.46 5.55 -1.26 0.55 -3.07 1.32 -3.99 1.69 -0.92 0.37 -2.24 0.89 -2.91 1.17 -0.67 0.28 -1.56 0.71 -1.99 0.98 -0.43 0.28 -1.23 0.71 -1.81 0.95 -1.01 0.40 -2.21 1.01 -5.89 3.01 -0.92 0.49 -2.36 1.41 -3.13 1.99 -0.80 0.61 -1.53 1.10 -1.66 1.10 -0.40 0 -3.92 2.58 -5.95 4.35 -1.10 0.98 -2.12 1.78 -2.27 1.78 -0.43 0 -7.27 6.53 -9.87 9.48 -11.47 12.85 -18.37 28.27 -19.29 43.11 -0.61 10.27 3.01 20.39 9.75 27.14 2.67 2.67 4.97 4.26 8.37 5.86 6.38 2.97 13.71 3.13 20.36 0.43 2.91 -1.20 3.65 -1.29 4.94 -0.61 1.90 0.98 2.09 2.91 0.46 4.72 -1.32 1.44 -4.38 2.73 -8.83 3.74 -6.93 1.53 -16.19 -0.12 -22.75 -4.14 -8.74 -5.27 -14.90 -13.74 -17.48 -23.98 -2.97 -11.71 -0.67 -26.62 6.29 -40.75 4.42 -8.98 9.87 -16.47 17.39 -23.95 16.87 -16.80 38.58 -27.11 64.03 -30.39 5.37 -0.67 19.75 -0.77 24.68 -0.15 25.48 3.22 47.10 13.46 63.20 29.99 4.84 5 7.73 8.52 11.35 14.01 8.28 12.48 12.82 25.91 13.37 39.46 0.58 14.93 -3.25 26.46 -11.68 35.20 -2.48 2.58 -6.16 5.58 -6.84 5.58 -0.15 0 -0.74 0.34 -1.32 0.71 -3.07 2.09 -13.74 5.43 -18 5.64 -2.15 0.12 -2.27 0.09 -3.16 -0.77z"/>
  <path d="M159.36 143.51 c-1.69 -0.43 -3.43 -1.41 -4.17 -2.33 -1.29 -1.66 -0.52 -4.14 1.44 -4.75 1.04 -0.31 1.38 -0.25 3.13 0.49 2.36 0.98 4.60 0.95 6.68 -0.12 2.82 -1.44 5.27 -0.43 5.27 2.18 0 1.66 -0.95 2.76 -3.34 3.86 -1.38 0.64 -2.24 0.80 -4.78 0.86 -1.69 0.06 -3.59 -0.03 -4.23 -0.18z"/>
  <path d="M225.04 142.93 c-0.67 -0.71 -0.89 -1.20 -0.89 -2.09 0 -1.53 0.74 -2.33 2.82 -3.01 2.58 -0.86 4.51 -1.93 5.86 -3.31 1.29 -1.29 1.69 -1.96 3.10 -5.18 0.67 -1.59 0.86 -1.78 2.05 -2.09 1.69 -0.46 2.61 -0.18 3.37 1.01 0.89 1.38 0.61 3.53 -0.74 6.26 -1.29 2.55 -2.64 4.20 -5.06 6.22 -2.70 2.27 -4.63 3.07 -7.36 3.07 -2.09 0 -2.33 -0.06 -3.16 -0.89z"/>
  <path d="M90 141.67 c-7.05 -0.95 -13.71 -6.29 -17.08 -13.77 -5.24 -11.50 -2.39 -28.09 7.45 -43.27 3.62 -5.61 9.57 -12.17 14.20 -15.64 3.89 -2.94 4.63 -3.50 5.24 -3.83 0.34 -0.18 1.63 -1.01 2.88 -1.81 7.14 -4.69 19.01 -8.80 26.86 -9.29 2.67 -0.15 2.79 -0.15 3.74 0.64 1.84 1.56 1.56 4.14 -0.58 5.15 -0.55 0.28 -2.73 0.77 -4.84 1.10 -8.37 1.35 -13.89 3.25 -20.97 7.30 -6.26 3.59 -13.40 9.75 -18.03 15.64 -8.10 10.24 -12.97 24.16 -11.90 33.95 1.04 9.38 6.38 16.22 13.61 17.48 4.81 0.83 9.44 -1.96 10.64 -6.38 0.77 -2.85 -0.49 -6.96 -2.64 -8.62 -2.27 -1.72 -4.38 -2.02 -8.13 -1.17 -1.72 0.37 -2.36 0.40 -3.22 0.12 -1.35 -0.46 -2.30 -1.66 -2.30 -2.88 0 -1.50 0.55 -2.09 3.37 -3.43 1.41 -0.71 5.98 -0.92 8.19 -0.43 6.93 1.53 11.44 7.21 11.44 14.41 -0.03 6.47 -3.99 11.84 -10.33 13.98 -1.07 0.37 -2.05 0.74 -2.15 0.86 -0.25 0.25 -3.13 0.18 -5.46 -0.12z"/>
  <path d="M117.47 117.87 c-0.77 -0.64 -0.95 -1.01 -0.95 -2.02 0 -1.90 0.83 -3.25 3.83 -6.22 2.12 -2.15 3.34 -3.07 5.21 -4.05 5.64 -2.88 10.82 -3.74 16.01 -2.67 5.15 1.04 8.83 3.34 9.20 5.70 0.15 1.01 0.03 1.29 -0.92 2.24 -0.58 0.58 -1.38 1.07 -1.75 1.07 -0.40 0 -1.87 -0.58 -3.34 -1.29 -2.51 -1.23 -2.79 -1.32 -5.95 -1.41 -4.05 -0.15 -5.76 0.21 -9.90 2.12 -0.71 0.31 -1.38 0.58 -1.50 0.58 -0.55 0 -2.91 2.24 -4.02 3.74 -0.61 0.89 -1.50 1.93 -1.93 2.30 -1.10 0.98 -2.79 0.92 -3.99 -0.09z"/>
  <path d="M160.16 115.79 c-1.72 -0.77 -2.02 -2.24 -1.13 -5.34 0.34 -1.17 0.46 -2.39 0.37 -3.96 -0.55 -8.31 -9.29 -13.89 -21.86 -13.89 -5.18 0 -10.49 1.07 -13.49 2.76 -0.49 0.28 -1.29 0.61 -1.72 0.71 -2.51 0.61 -8.65 5.76 -11.81 9.90 -1.32 1.72 -1.99 2.33 -2.82 2.55 -1.50 0.43 -2.97 -0.21 -3.62 -1.63 -0.49 -1.01 -0.49 -1.17 0 -2.42 0.64 -1.72 4.45 -6.32 7.11 -8.62 4.78 -4.11 10.09 -6.90 16.31 -8.56 3.40 -0.89 3.92 -0.92 9.57 -0.95 6.26 -0.03 7.42 0.12 12.27 1.56 8.22 2.42 14.29 8.16 16.10 15.12 0.74 2.85 0.52 7.48 -0.49 9.94 -1.07 2.64 -2.82 3.68 -4.78 2.82z"/>
  <path d="M217.41 113.76 c-2.02 -2.15 -2.85 -10.82 -1.50 -15.64 2.21 -8.03 8.83 -13.58 16.19 -13.58 3.53 0 5.24 1.13 5.24 3.47 -0.03 2.15 -1.44 3.07 -4.69 3.07 -3.04 0 -4.69 0.61 -6.87 2.61 -2.21 1.99 -3.59 4.75 -4.08 8.13 -0.37 2.51 -0.25 3.89 0.67 7.45 0.64 2.61 0.55 3.34 -0.61 4.60 -0.64 0.64 -1.07 0.83 -2.15 0.83 -1.10 0 -1.50 -0.15 -2.21 -0.92z"/>
  <path d="M175.06 108.58 c-1.53 -1.56 -1.29 -2.67 1.50 -7.02 6.07 -9.51 10.73 -15.64 15.85 -20.79 3.74 -3.80 5.03 -4.72 6.53 -4.72 1.53 0 2.82 1.41 2.82 3.07 0 1.26 -0.15 1.44 -4.66 6.10 -5.37 5.49 -7.79 8.56 -13.28 16.83 -2.15 3.25 -4.32 6.22 -4.81 6.65 -1.29 1.07 -2.79 1.04 -3.96 -0.12z"/>
  <path d="M90.34 104.90 c-0.80 -0.83 -0.86 -1.07 -0.74 -2.70 0.25 -3.04 3.07 -8.80 6.50 -13.25 1.47 -1.87 6.01 -6.44 8 -8.03 2.27 -1.81 6.44 -4.42 8.74 -5.46 1.26 -0.55 2.67 -1.23 3.16 -1.47 2.61 -1.35 9.72 -3.22 14.44 -3.80 4.17 -0.49 11.71 -0.21 15.95 0.64 10.15 1.99 18.92 6.41 25.82 12.97 3.37 3.19 3.86 4.84 1.90 6.50 -1.81 1.53 -2.76 1.13 -7.27 -2.82 -4.48 -3.96 -9.54 -6.78 -15.76 -8.80 -5.52 -1.84 -7.82 -2.15 -14.93 -2.05 -6.75 0.06 -11.13 0.67 -13.68 1.90 -0.67 0.31 -1.50 0.58 -1.84 0.58 -0.92 0 -5.55 2.18 -8.34 3.92 -7.48 4.66 -13.43 11.62 -16.16 18.92 -1.07 2.85 -2.02 3.83 -3.68 3.83 -1.01 0 -1.44 -0.18 -2.12 -0.89z"/>
  <path d="M208.55 85.43 c-0.86 -0.49 -1.53 -1.59 -1.56 -2.61 0 -0.40 0.71 -1.93 1.56 -3.43 3.59 -6.22 4.38 -10.49 2.88 -15.42 -0.67 -2.21 -0.58 -3.37 0.34 -4.45 0.64 -0.80 1.01 -0.95 2.12 -0.95 1.87 0 2.76 0.83 3.53 3.28 2.18 7.02 1.01 13.95 -3.56 21 -1.78 2.76 -3.47 3.59 -5.30 2.58z"/>
  <path d="M182.39 73.62 c-1.44 -1.29 -1.38 -3.04 0.21 -6.16 2.18 -4.32 6.59 -7.79 11.10 -8.74 2.70 -0.58 3.92 -0.58 6.62 0.03 1.78 0.43 2.42 0.74 3.37 1.66 1.23 1.26 1.44 2.21 0.71 3.62 -0.71 1.35 -1.78 1.78 -3.43 1.35 -0.74 -0.21 -2.45 -0.37 -3.77 -0.37 -2.15 0 -2.64 0.12 -4.57 1.07 -2.45 1.23 -3.28 2.18 -4.78 5.46 -0.58 1.29 -1.32 2.45 -1.66 2.64 -1.20 0.64 -2.73 0.40 -3.80 -0.55z"/>
  <path d="M169.57 73.35 c-1.41 -0.77 -3.13 -3.31 -4.11 -6.19 -1.01 -2.88 -1.04 -5.70 -0.18 -8.74 1.10 -3.74 1.26 -5.06 0.89 -6.90 -0.31 -1.50 -0.55 -1.90 -2.61 -3.92 -1.99 -1.93 -2.27 -2.36 -2.27 -3.31 0 -1.63 1.35 -2.88 3.16 -2.88 1.56 0 2.94 0.86 5.06 3.19 3.40 3.71 4.14 8.52 2.21 14.63 -1.07 3.50 -0.74 5.83 1.35 8.86 1.63 2.39 1.47 4.38 -0.43 5.37 -1.17 0.61 -1.78 0.58 -3.07 -0.09z"/>
  <path d="M141.94 65.04 c-1.10 -1.13 -1.13 -2.15 -0.12 -5.34 1.35 -4.20 0.98 -7.48 -1.23 -11.19 -1.35 -2.18 -1.38 -3.34 -0.18 -4.63 2.30 -2.48 5.83 0 7.76 5.49 0.58 1.69 0.67 2.58 0.67 5.98 0 3.47 -0.12 4.29 -0.83 6.41 -1.01 3.13 -1.99 4.17 -3.83 4.17 -1.07 0 -1.50 -0.18 -2.24 -0.89z"/>
 </g>
</svg>